<?xml version="1.0"?>
<svg xmlns="http://www.w3.org/2000/svg" xmlns:xlink="http://www.w3.org/1999/xlink" version="1.1" id="Layer_1" x="0px" y="0px" viewBox="0 0 512.001 512.001" style="enable-background:new 0 0 512.001 512.001;" xml:space="preserve" width="512px" height="512px" class=""><g><g>
	<g>
		<path d="M430.387,77.731c-3.407-3.407-6.904-6.692-10.468-9.878c-0.055-0.05-0.11-0.098-0.165-0.147    C373.535,26.454,314.563,3.889,252.114,3.888c-0.009,0-0.018,0-0.027,0c-0.003,0-0.007,0-0.01,0    c-40.357,0.006-80.49,9.779-116.062,28.265c-18.297,9.509-35.417,21.345-50.901,35.047c-0.457,0.324-0.888,0.698-1.28,1.132    C70.689,80.121,58.747,93.262,48.34,107.52c-2.51,3.439-1.758,8.261,1.681,10.77c3.438,2.509,8.261,1.756,10.77-1.681    c8.679-11.89,18.399-22.832,28.966-32.764c17.31,14.583,36.355,26.664,56.606,36.021c-12.027,38.078-18.772,82.196-19.448,128.424    H15.546c1.092-34.807,9.582-68.122,25.298-99.133c1.924-3.797,0.406-8.435-3.393-10.36c-3.792-1.924-8.435-0.406-10.36,3.393    C9.114,177.666,0,215.956,0,256c0,67.341,26.225,130.653,73.842,178.271c47.618,47.618,110.93,73.842,178.271,73.842    c53.975,0,105.447-16.81,148.854-48.615c3.435-2.516,4.178-7.34,1.662-10.773c-2.515-3.436-7.339-4.177-10.773-1.663    c-26.958,19.752-57.235,33.337-89.313,40.273c6.364-5.538,12.496-12.146,18.333-19.802c2.582-3.385,1.929-8.222-1.456-10.803    c-3.384-2.584-8.223-1.93-10.803,1.456c-14.955,19.614-31.666,31.189-48.745,33.89l0.686-65.404    c0.044-4.257-3.37-7.743-7.628-7.788c-0.027,0-0.055,0-0.082,0c-4.219,0-7.661,3.399-7.706,7.628l-0.688,65.592    c-25.47-3.906-49.557-27.212-68.513-66.624c-3.966-8.246-7.602-16.998-10.904-26.18c15.631-6.185,31.946-10.705,48.704-13.436    c4.203-0.684,7.053-4.647,6.368-8.847c-0.685-4.203-4.648-7.053-8.847-6.368c-17.571,2.864-34.684,7.572-51.095,13.999    c-11.002-35.914-17.176-77.401-17.83-120.938h81.905c4.258,0,7.708-3.45,7.708-7.708c0-4.258-3.45-7.708-7.708-7.708h-81.905    c0.662-44.122,6.998-86.133,18.28-122.377c26.687,10.391,55.143,16.222,84.227,17.057l0.298,89.57    c0.014,4.249,3.463,7.683,7.707,7.683c0.009,0,0.018,0,0.027,0c4.257-0.014,7.696-3.477,7.683-7.734l-0.298-89.548    c28.382-0.913,56.158-6.574,82.259-16.596c7.024,23.119,11.974,48.64,14.482,75.369c0.398,4.239,4.153,7.355,8.395,6.954    c4.239-0.398,7.352-4.156,6.954-8.395c-2.656-28.303-7.974-55.382-15.555-79.921c20.63-9.416,40.027-21.646,57.628-36.467    c44.028,41.542,72.17,99.737,74.25,164.408H444.53c-4.258,0-7.708,3.45-7.708,7.708c0,4.258,3.45,7.708,7.708,7.708h44.152    c-1.382,42.949-14.294,84.459-37.566,120.502c-2.309,3.577-1.282,8.348,2.294,10.657c1.293,0.836,2.742,1.233,4.175,1.233    c2.529,0,5.008-1.245,6.483-3.528c26.273-40.694,40.161-87.92,40.161-136.574C504.229,188.661,478.004,125.349,430.387,77.731z     M162.044,432.161c11.402,23.706,24.783,42.239,39.465,55.071c-37.804-8.265-72.256-25.585-100.96-49.575    c15.447-12.896,32.354-23.694,50.324-32.208C154.265,414.798,157.988,423.729,162.044,432.161z M145.927,390.745    c-20.439,9.502-39.611,21.767-57.002,36.552c-43.527-41.485-71.303-99.347-73.37-163.588h111.36    C127.583,309.376,134.174,352.984,145.927,390.745z M151.377,105.181C133.6,96.82,116.83,86.222,101.478,73.543    c28.958-23.834,63.261-40.568,99.909-48.668c-14.636,12.829-27.973,31.324-39.343,54.964    C158.188,87.858,154.633,96.331,151.377,105.181z M165.551,111.29c3.165-8.666,6.626-16.948,10.388-24.768    c18.951-39.403,43.031-62.708,68.494-66.622l0.358,107.647C217.416,126.703,190.644,121.146,165.551,111.29z M260.207,127.519    l-0.358-107.545c20.507,3.472,40.841,20.595,57.985,49.109c7.545,12.549,14.198,26.899,19.836,42.602    C313.104,121.206,286.946,126.609,260.207,127.519z M351.865,105.648c-5.922-16.353-12.903-31.343-20.819-44.508    c-9.069-15.085-19.113-27.396-29.779-36.688c37.958,8.049,72.588,25.211,101.47,49.098    C387.105,86.46,370.003,97.219,351.865,105.648z" data-original="#000000" class="active-path" data-old_color="#000000" fill="#2B70A1"/>
	</g>
</g><g>
	<g>
		<path d="M393.191,276.041h0.001c-30.209-30.208-79.364-30.208-109.573,0.001c-30.209,30.21-30.209,79.364,0,109.573    c15.106,15.105,34.943,22.658,54.787,22.656c19.838-0.002,39.682-7.554,54.785-22.656c14.635-14.633,22.694-34.091,22.694-54.788    C415.886,310.132,407.826,290.676,393.191,276.041z M382.289,374.714c-24.197,24.199-63.572,24.199-87.768,0    c-24.199-24.198-24.199-63.572,0-87.769c12.098-12.099,27.991-18.148,43.884-18.148c15.893,0,31.786,6.049,43.884,18.148    c0,0,0,0,0.001,0c11.723,11.722,18.178,27.307,18.178,43.884C400.468,347.407,394.013,362.992,382.289,374.714z" data-original="#000000" class="active-path" data-old_color="#000000" fill="#2B70A1"/>
	</g>
</g><g>
	<g>
		<path d="M509.743,468.888l-77.914-77.915c11.49-17.77,17.656-38.482,17.656-60.145c0-29.67-11.554-57.565-32.534-78.544    c-43.311-43.309-113.778-43.309-157.089,0c-13.666,13.667-23.563,30.693-28.617,49.241c-1.119,4.107,1.303,8.344,5.41,9.464    c4.111,1.12,8.344-1.302,9.465-5.411c4.35-15.96,12.872-30.619,24.645-42.392c37.297-37.299,97.988-37.299,135.285,0    c18.069,18.067,28.02,42.09,28.02,67.642c0,25.553-9.951,49.575-28.02,67.643c-37.297,37.299-97.988,37.299-135.285,0    c-16.06-16.06-25.902-37.353-27.713-59.957c-0.339-4.244-4.06-7.39-8.298-7.069c-4.244,0.34-7.408,4.056-7.069,8.299    c2.103,26.252,13.531,50.981,32.179,69.629c21.655,21.654,50.1,32.482,78.545,32.482c20.947,0,41.89-5.879,60.126-17.622    l77.933,77.933c1.506,1.505,3.478,2.257,5.451,2.257c1.972,0,3.946-0.752,5.45-2.257l22.376-22.376    c1.446-1.446,2.258-3.406,2.258-5.451C512.001,472.293,511.188,470.335,509.743,468.888z M481.916,485.814l-70.703-70.703    l5.718-5.717c0.006-0.006,0.013-0.012,0.02-0.02c0.007-0.007,0.013-0.014,0.021-0.021l5.716-5.718l70.704,70.704L481.916,485.814z    " data-original="#000000" class="active-path" data-old_color="#000000" fill="#2B70A1"/>
	</g>
</g></g> </svg>
